<svg width="12" height="21" viewBox="0 0 12 21" fill="none" xmlns="http://www.w3.org/2000/svg">
<path d="M0.0976562 10.7031C0.0976562 10.996 0.203125 11.254 0.425781 11.4766L9.71875 20.5585C9.91797 20.7695 10.1758 20.875 10.4805 20.875C11.0899 20.875 11.5586 20.4179 11.5586 19.8085C11.5586 19.5039 11.4297 19.2461 11.2422 19.0469L2.71094 10.7031L11.2422 2.35937C11.4297 2.16016 11.5586 1.89063 11.5586 1.59766C11.5586 0.988281 11.0899 0.53125 10.4805 0.53125C10.1758 0.53125 9.91797 0.636719 9.71875 0.835938L0.425781 9.92969C0.203125 10.1406 0.0976562 10.4102 0.0976562 10.7031Z" fill="white"/>
</svg>
