<?xml version="1.0" encoding="utf-8"?>
<!-- Generator: Adobe Illustrator 25.4.1, SVG Export Plug-In . SVG Version: 6.00 Build 0)  -->
<svg version="1.1" id="Layer_1" xmlns="http://www.w3.org/2000/svg" xmlns:xlink="http://www.w3.org/1999/xlink" x="0px" y="0px"
	 viewBox="0 0 793.7 219.7" style="enable-background:new 0 0 793.7 219.7;" xml:space="preserve">
<style type="text/css">
	.st0{fill:#FFFFFF;}
</style>
<g>
	<g>
		<polygon class="st0" points="175.2,109.8 194.2,128.7 177.1,145.9 158.1,126.9 139.2,145.9 122,128.7 141,109.8 122,90.8 
			139.2,73.6 158.1,92.6 177.1,73.6 194.2,90.8 		"/>
		<path class="st0" d="M63.5,146.2c-19.9,0-36.1-16.2-36.1-36.1C27.5,90.2,43.6,74,63.5,74c19.9,0,36.1,16.2,36.1,36.1
			C99.6,130,83.5,146.1,63.5,146.2z M63.5,98.1c-6.6,0-12,5.4-12,12c0,6.6,5.4,12,12,12c6.6,0,12-5.4,12-12
			C75.5,103.4,70.2,98.1,63.5,98.1L63.5,98.1z"/>
		<polygon class="st0" points="218.7,44.4 203.9,44.4 203.9,15.1 174.9,15.1 174.9,0.4 218.7,0.4 		"/>
		<polygon class="st0" points="15,44.4 0.3,44.4 0.3,0.4 44.1,0.4 44.1,15.1 15,15.1 		"/>
		<polygon class="st0" points="44.1,219.3 0.3,219.3 0.3,175.3 15,175.3 15,204.6 44.1,204.6 		"/>
		<polygon class="st0" points="218.7,219.3 174.9,219.3 174.9,204.6 203.9,204.6 203.9,175.3 218.7,175.3 		"/>
	</g>
	<path class="st0" d="M262.5,78.7h21v46.1h28.2V141h-49.2V78.7z"/>
	<path class="st0" d="M373.8,125.2v15.9h-51.9V78.7h50.7v15.9h-30v7.3H369V117h-26.4v8.2L373.8,125.2z"/>
	<path class="st0" d="M427.6,108.1h18.3v26.4c-7.6,5.2-18,7.9-27.2,7.9c-20.1,0-34.8-13.5-34.8-32.6s14.7-32.6,35.3-32.6
		c12.3,0,22.2,4.3,28.5,12l-13.5,11.9c-3.9-4.5-8.5-6.9-14-6.9c-9.3,0-15.1,6-15.1,15.6c0,9.4,5.9,15.6,14.9,15.6
		c2.6,0,5.2-0.5,7.7-1.5L427.6,108.1z"/>
	<path class="st0" d="M459.3,78.7h21V141h-21V78.7z"/>
	<path class="st0" d="M508.5,95h-18.3V78.7h57.6V95h-18.3V141h-21L508.5,95z"/>
	<path class="st0" d="M631.4,130.2h-23.7l-4.2,10.9h-21.4l27.3-62.4h20.7l27.3,62.4h-21.7L631.4,130.2z M625.6,115l-6.1-15.7
		l-6.1,15.7H625.6z"/>
	<path class="st0" d="M723.7,102.2c0,14.4-11,23.5-28.4,23.5h-9V141h-21V78.7h30C712.6,78.7,723.7,87.7,723.7,102.2z M702.5,102.2
		c0-4.5-2.8-7.3-8.5-7.3h-7.7v14.6h7.7C699.7,109.5,702.4,106.7,702.5,102.2L702.5,102.2z"/>
	<path class="st0" d="M793.4,102.2c0,14.4-11.1,23.5-28.4,23.5h-9V141h-21V78.7h30C782.4,78.7,793.4,87.7,793.4,102.2z M772.3,102.2
		c0-4.5-2.8-7.3-8.6-7.3h-7.7v14.6h7.7C769.5,109.5,772.2,106.7,772.3,102.2L772.3,102.2z"/>
</g>
</svg>
