<svg width="26" height="19" viewBox="0 0 26 19" fill="none" xmlns="http://www.w3.org/2000/svg">
<path d="M0.730469 1.59179C0.730469 2.16601 0.941368 2.55273 1.50387 3.12695L7.74997 9.43164C7.80857 9.49023 7.85547 9.53711 7.85547 9.5957C7.85547 9.64257 7.80857 9.70117 7.74997 9.75976L1.50387 16.0528C0.941367 16.6387 0.730468 17.0137 0.730468 17.5879C0.730468 18.3848 1.33987 18.8653 2.13667 18.8653C2.58207 18.8653 3.10937 18.6895 3.58987 18.5137L23.6055 11.1895C24.6367 10.8145 25.1055 10.2637 25.1055 9.5957C25.1055 8.91601 24.6367 8.37695 23.6055 8.00195L3.58987 0.666014C3.10937 0.501952 2.58207 0.314452 2.13667 0.314452C1.33987 0.314452 0.730469 0.794921 0.730469 1.59179Z" fill="#6B717F"/>
</svg>
