<?xml version="1.0" encoding="utf-8"?>
<!-- Generator: Adobe Illustrator 25.4.1, SVG Export Plug-In . SVG Version: 6.00 Build 0)  -->
<svg version="1.1" id="Layer_1" xmlns="http://www.w3.org/2000/svg" xmlns:xlink="http://www.w3.org/1999/xlink" x="0px" y="0px"
	 viewBox="0 0 793.7 219.7" style="enable-background:new 0 0 793.7 219.7;" xml:space="preserve">
<style type="text/css">
	.st0{fill:#282A30;}
	.st1{fill:#FFFFFF;}
</style>
<polygon class="st0" points="592,109.4 649.4,166.9 597.6,218.8 540.1,161.2 482.6,218.8 430.7,166.9 488.2,109.4 430.7,51.9 
	482.6,0 540.1,57.5 597.6,0 649.4,51.9 "/>
<path class="st1" d="M253.5,219.7c-60.3-0.1-109.2-49-109.3-109.3C144.3,50,193.2,1.1,253.5,1.1C313.9,1.1,362.8,50,362.9,110.4
	C362.8,170.7,313.9,219.6,253.5,219.7z M253.5,74c-20.1,0-36.3,16.3-36.4,36.4c0,20.1,16.3,36.4,36.4,36.4
	c20.1,0,36.4-16.3,36.4-36.4C289.9,90.3,273.6,74,253.5,74L253.5,74z"/>
</svg>
