<svg width="22" height="27" viewBox="0 0 22 27" fill="none" xmlns="http://www.w3.org/2000/svg">
<path d="M21.3633 11.5098V23.2051C21.3633 25.6191 20.1328 26.8379 17.6836 26.8379H4.24219C1.79297 26.8379 0.5625 25.6191 0.5625 23.2051V11.5098C0.5625 9.0957 1.79297 7.87695 4.24219 7.87695H7.76953V9.7637H4.26562C3.09375 9.7637 2.44922 10.3965 2.44922 11.6152V23.0996C2.44922 24.3184 3.09375 24.9512 4.26562 24.9512H17.6484C18.8086 24.9512 19.4766 24.3184 19.4766 23.0996V11.6152C19.4766 10.3965 18.8086 9.7637 17.6484 9.7637H14.1562V7.87695H17.6836C20.1328 7.87695 21.3633 9.0957 21.3633 11.5098Z" fill="white"/>
<path d="M10.957 17.6621C11.4609 17.6621 11.8945 17.2402 11.8945 16.748V4.71289L11.8242 2.95508L12.6094 3.78711L14.3906 5.68554C14.5547 5.87304 14.7891 5.96679 15.0234 5.96679C15.5039 5.96679 15.8789 5.61523 15.8789 5.13476C15.8789 4.88867 15.7734 4.70117 15.5977 4.52539L11.6367 0.705082C11.4023 0.470702 11.2031 0.388672 10.957 0.388672C10.7227 0.388672 10.5234 0.470702 10.2773 0.705082L6.31641 4.52539C6.14062 4.70117 6.04688 4.88867 6.04688 5.13476C6.04688 5.61523 6.39844 5.96679 6.89062 5.96679C7.11328 5.96679 7.37109 5.87304 7.53516 5.68554L9.30469 3.78711L10.1016 2.95508L10.0312 4.71289V16.748C10.0312 17.2402 10.4531 17.6621 10.957 17.6621Z" fill="white"/>
</svg>
